{
  "accessors": [
    {
      "bufferView": 2,
      "componentType": 5126,
      "count": 78,
      "max": [
        0.78998202085494995,
        -5.1277370452880859,
        10.084388732910156
      ],
      "min": [
        -0.78998202085494995,
        -5.6077370643615723,
        9.6043872833251953
      ],
      "type": "VEC3"
    },
    {
      "bufferView": 2,
      "byteOffset": 936,
      "componentType": 5126,
      "count": 78,
      "max": [
        0.95105618238449097,
        1,
        1
      ],
      "min": [
        -0.95105618238449097,
        -1,
        -1
      ],
      "type": "VEC3"
    },
    {
      "bufferView": 3,
      "componentType": 5126,
      "count": 78,
      "max": [
        0.99997341632843018,
        1,
        0.30846321582794189,
        1
      ],
      "min": [
        -0.99255269765853882,
        -1,
        -0.30837523937225342,
        -1
      ],
      "type": "VEC4"
    },
    {
      "bufferView": 1,
      "componentType": 5126,
      "count": 78,
      "max": [
        0.96005702018737793,
        0.71747201681137085
      ],
      "min": [
        0.027339000254869461,
        0.2513749897480011
      ],
      "type": "VEC2"
    },
    {
      "bufferView": 0,
      "componentType": 5125,
      "count": 408,
      "max": [
        77
      ],
      "min": [
        0
      ],
      "type": "SCALAR"
    },
    {
      "bufferView": 2,
      "byteOffset": 1872,
      "componentType": 5126,
      "count": 1571,
      "max": [
        2.8984160423278809,
        7.2755007743835449,
        10.770589828491211
      ],
      "min": [
        -2.8984160423278809,
        -6.9645471572875977,
        -1.529710054397583
      ],
      "type": "VEC3"
    },
    {
      "bufferView": 2,
      "byteOffset": 20724,
      "componentType": 5126,
      "count": 1571,
      "max": [
        0.99866193532943726,
        0.99860286712646484,
        0.99941492080688477
      ],
      "min": [
        -0.99866193532943726,
        -0.99953168630599976,
        -0.99998939037322998
      ],
      "type": "VEC3"
    },
    {
      "bufferView": 3,
      "byteOffset": 1248,
      "componentType": 5126,
      "count": 1571,
      "max": [
        1,
        0.99930781126022339,
        0.99998891353607178,
        1
      ],
      "min": [
        -0.99927234649658203,
        -0.99924486875534058,
        -0.99990624189376831,
        -1
      ],
      "type": "VEC4"
    },
    {
      "bufferView": 1,
      "byteOffset": 624,
      "componentType": 5126,
      "count": 1571,
      "max": [
        0.99035102128982544,
        0.99271500110626221
      ],
      "min": [
        0.0062680002301931381,
        0.0078189997002482414
      ],
      "type": "VEC2"
    },
    {
      "bufferView": 0,
      "byteOffset": 1632,
      "componentType": 5125,
      "count": 7116,
      "max": [
        1570
      ],
      "min": [
        0
      ],
      "type": "SCALAR"
    }
  ],
  "asset": {
    "extras": {
      "author": "tomkranis (https://sketchfab.com/tomkranis)",
      "license": "CC-BY-4.0 (http://creativecommons.org/licenses/by/4.0/)",
      "source": "https://sketchfab.com/models/4383b3f88d9646c7b2f336266eaad947",
      "title": "Pigeon 3"
    },
    "generator": "Sketchfab-3.29.4",
    "version": "2.0"
  },
  "bufferViews": [
    {
      "buffer": 0,
      "byteLength": 30096,
      "byteOffset": 0,
      "name": "floatBufferViews",
      "target": 34963
    },
    {
      "buffer": 0,
      "byteLength": 13192,
      "byteOffset": 30096,
      "byteStride": 8,
      "name": "floatBufferViews",
      "target": 34962
    },
    {
      "buffer": 0,
      "byteLength": 39576,
      "byteOffset": 43288,
      "byteStride": 12,
      "name": "floatBufferViews",
      "target": 34962
    },
    {
      "buffer": 0,
      "byteLength": 26384,
      "byteOffset": 82864,
      "byteStride": 16,
      "name": "floatBufferViews",
      "target": 34962
    }
  ],
  "buffers": [
    {
      "byteLength": 109248,
      "uri": "scene.bin"
    }
  ],
  "images": [
    {
      "uri": "textures/pigeon1_baseColor.png"
    },
    {
      "uri": "textures/Eyes1_baseColor.png"
    }
  ],
  "materials": [
    {
      "doubleSided": false,
      "name": "Eyes1",
      "pbrMetallicRoughness": {
        "baseColorFactor": [
          1,
          1,
          1,
          1
        ],
        "baseColorTexture": {
          "index": 1,
          "texCoord": 0
        },
        "metallicFactor": 0,
        "roughnessFactor": 0.22
      }
    },
    {
      "doubleSided": false,
      "name": "pigeon1",
      "pbrMetallicRoughness": {
        "baseColorFactor": [
          1,
          1,
          1,
          1
        ],
        "baseColorTexture": {
          "index": 0,
          "texCoord": 0
        },
        "metallicFactor": 0,
        "roughnessFactor": 0.82999999999999996
      }
    }
  ],
  "meshes": [
    {
      "primitives": [
        {
          "attributes": {
            "NORMAL": 1,
            "POSITION": 0,
            "TANGENT": 2,
            "TEXCOORD_0": 3
          },
          "indices": 4,
          "material": 0,
          "mode": 4
        }
      ]
    },
    {
      "primitives": [
        {
          "attributes": {
            "NORMAL": 6,
            "POSITION": 5,
            "TANGENT": 7,
            "TEXCOORD_0": 8
          },
          "indices": 9,
          "material": 1,
          "mode": 4
        }
      ]
    }
  ],
  "nodes": [
    {
      "children": [
        1
      ],
      "name": "RootNode (gltf orientation matrix)",
      "rotation": [
        -0.70710678118654746,
        -0,
        -0,
        0.70710678118654757
      ]
    },
    {
      "children": [
        2
      ],
      "name": "RootNode (model correction matrix)"
    },
    {
      "children": [
        3,
        4
      ],
      "name": "pigeon3.obj.cleaner"
    },
    {
      "mesh": 0,
      "name": ""
    },
    {
      "mesh": 1,
      "name": ""
    }
  ],
  "samplers": [
    {
      "magFilter": 9729,
      "minFilter": 9987,
      "wrapS": 10497,
      "wrapT": 10497
    }
  ],
  "scene": 0,
  "scenes": [
    {
      "name": "OSG_Scene",
      "nodes": [
        0
      ]
    }
  ],
  "textures": [
    {
      "sampler": 0,
      "source": 0
    },
    {
      "sampler": 0,
      "source": 1
    }
  ]
}

